<?xml version="1.0" standalone="no"?>
<!DOCTYPE svg PUBLIC "-//W3C//DTD SVG 20010904//EN"
 "http://www.w3.org/TR/2001/REC-SVG-20010904/DTD/svg10.dtd">
<svg version="1.0" xmlns="http://www.w3.org/2000/svg"
 width="498.000000pt" height="101.000000pt" viewBox="0 0 498.000000 101.000000"
 preserveAspectRatio="xMidYMid meet">

<g transform="translate(0.000000,101.000000) scale(0.100000,-0.100000)"
fill="#000000" stroke="none">
<path d="M1133 999 c-148 -25 -280 -117 -356 -249 -85 -150 -80 -364 13 -510
35 -55 111 -129 167 -163 159 -99 382 -93 542 14 318 212 285 695 -59 862
-104 51 -196 64 -307 46z m201 -254 c92 -45 150 -138 149 -241 -1 -78 -27
-137 -85 -190 -120 -111 -296 -95 -395 34 -41 54 -57 111 -50 183 8 94 65 175
152 216 41 20 62 23 120 21 42 -2 86 -11 109 -23z"/>
<path d="M328 992 l-328 -2 0 -485 0 -485 120 0 120 0 0 175 0 175 148 0 148
0 32 98 c18 54 32 101 32 105 0 4 -81 7 -180 7 l-180 0 0 105 0 105 177 2 176
3 33 99 c19 55 33 100 31 100 -1 1 -149 0 -329 -2z"/>
<path d="M2675 930 c-22 -36 -51 -82 -64 -102 l-23 -38 146 0 146 0 0 -385 0
-385 115 0 115 0 0 385 0 385 125 0 125 0 0 103 0 102 -322 0 -321 0 -42 -65z"/>
<path d="M3500 508 l0 -488 294 0 294 0 31 93 c17 50 31 95 31 100 0 4 -92 7
-205 7 l-205 0 0 100 0 99 147 3 147 3 32 90 c18 50 33 93 33 98 1 4 -80 7
-179 7 l-180 0 0 85 0 85 174 0 174 0 35 103 34 102 -329 0 -328 0 0 -487z"/>
<path d="M4300 508 l0 -488 293 0 293 0 28 87 c16 49 31 94 33 101 4 9 -41 12
-206 12 l-211 0 0 388 0 387 -115 0 -115 0 0 -487z"/>
<path d="M1710 970 c6 -11 70 -113 141 -226 72 -113 132 -211 135 -218 4 -11
-51 -103 -283 -468 l-23 -38 132 0 133 1 85 136 c47 75 90 136 95 136 6 1 48
-61 95 -136 l85 -137 133 0 132 0 -27 43 c-205 324 -283 453 -280 462 3 6 64
104 136 219 72 115 136 217 142 227 9 18 4 19 -120 19 l-129 0 -82 -130 c-45
-71 -83 -130 -85 -130 -2 0 -40 59 -85 130 l-82 130 -129 0 c-127 0 -129 0
-119 -20z"/>
</g>
</svg>
